<?xml version="1.0" encoding="iso-8859-1"?>
<!-- Generator: Adobe Illustrator 19.0.0, SVG Export Plug-In . SVG Version: 6.00 Build 0)  -->
<svg version="1.1" id="Capa_1" xmlns="http://www.w3.org/2000/svg" xmlns:xlink="http://www.w3.org/1999/xlink" x="0px" y="0px"
	 viewBox="0 0 496 496" style="enable-background:new 0 0 496 496;" xml:space="preserve">
<g>
	<g>
		<path d="M487.192,425.6l-16.264-21.696L419.16,289.288c-8.464-18.744-14.192-38.536-17.048-58.84
			c-1.4-9.96-2.112-20.112-2.112-30.16v-54.992c0-9.536-7.76-17.296-17.296-17.296c-7.456,0-14.056,4.76-16.408,11.832l-11.736,35.2
			c-4.648,13.936-10.92,27.184-18.6,39.616l-22.08-44.768c-3.048-6.088-9.176-9.88-15.992-9.88c-9.864,0-17.888,8.024-17.888,17.888
			v38.84c0,13.632-4,26.832-11.56,38.184c-2.912,4.36-4.44,9.432-4.44,14.664C264,284.152,275.848,296,290.424,296
			c15.28,0,29.2,8.384,36.344,21.88l49.632,93.736c-3.08-1.24-6.128-2.552-9.12-3.976l-86.032-40.752
			C260.68,357.152,237.784,352,215.016,352c-32.44,0-63.528,9.968-89.92,28.824l-2.76,1.968
			c-18.192,12.984-44.488,11.712-61.32-3.032L0,326.368V496h452c24.256,0,44-19.744,44-44
			C496,442.536,492.872,433.168,487.192,425.6z M120,480H16V361.632L50.488,391.8C62.424,402.248,77.736,408,93.584,408
			c9.224,0,18.128-2.064,26.416-5.736V480z M339.152,238.456c13.288-17.704,23.576-37.344,30.584-58.36l11.736-35.2
			c0.176-0.536,0.672-0.896,1.232-0.896c0.72,0,1.296,0.576,1.296,1.296v54.992c0,10.8,0.768,21.696,2.272,32.384
			c3.064,21.816,9.224,43.08,18.312,63.192l22.216,49.2L390.6,296.8c-11.488-15.312-26.936-27.16-44.696-34.256
			c-6.016-2.4-9.904-8.144-9.904-14.632C336,244.528,337.12,241.168,339.152,238.456z M452,480H272v-32h-16v32H136v-87.224
			C159.32,376.6,186.584,368,215.016,368c13.848,0,27.712,2.288,40.984,6.392V432h16v-51.624c0.784,0.352,1.616,0.608,2.392,0.976
			l86.04,40.752C385.152,433.816,412.664,440,440,440v-16c-14.032,0-28.104-1.848-41.76-5.304L340.904,310.4
			c-9.912-18.752-29.256-30.4-50.488-30.4c-5.744,0-10.416-4.672-10.416-10.424c0-2.064,0.6-4.064,1.752-5.784
			c9.32-13.976,14.248-30.256,14.248-47.056v-38.84c0-1.76,2.8-2.416,3.576-0.84l25.104,50.176l1.112,2.528
			c-3.704,5.296-5.792,11.68-5.792,18.152c0,13.064,7.832,24.632,19.96,29.496c15.032,6.008,28.12,16.04,37.84,28.992l96.6,128.8
			c3.608,4.816,5.6,10.776,5.6,16.8C480,467.44,467.44,480,452,480z"/>
	</g>
</g>
<g>
	<g>
		<path d="M216,9.136V0h-16v8h-16V0h-16v9.136C156.808,12.04,148.04,20.808,145.136,32H0v16h145.136
			C148.04,59.192,156.808,67.96,168,70.864V80h16v-8h16v8h16v-9.136c13.768-3.576,24-15.992,24-30.864S229.768,12.712,216,9.136z
			 M168,53.768C163.24,51,160,45.896,160,40s3.24-11,8-13.776V53.768z M200,56h-16V24h16V56z M216,53.776V26.224
			c4.76,2.776,8,7.88,8,13.776S220.76,51,216,53.776z"/>
	</g>
</g>
<g>
	<g>
		<path d="M235.528,200C222.96,186.328,216,168.752,216,150.064V96h-16v54.064c0,18.048,5.288,35.28,15.112,49.936h-46.224
			C178.712,185.344,184,168.112,184,150.064V96h-16v54.064c0,18.688-6.96,36.264-19.528,49.936H48v24c0,57.344,46.656,104,104,104
			s104-46.656,104-104v-24H235.528z M152,312c-35.712,0-66.464-21.424-80.248-52.056C76.544,256.272,89.736,248,112,248
			c13.304,0,30.776,4.816,49.272,9.896c19.944,5.488,42.096,11.52,64.792,13.432C210.408,295.744,183.096,312,152,312z M240,224
			c0,11.224-2.192,21.92-6.04,31.8c-23.424-1-47.232-7.488-68.448-13.32C145.944,237.088,127.464,232,112,232
			c-21.832,0-37.04,6.88-45.56,12.216C64.896,237.712,64,230.968,64,224v-8h176V224z"/>
	</g>
</g>
<g>
</g>
<g>
</g>
<g>
</g>
<g>
</g>
<g>
</g>
<g>
</g>
<g>
</g>
<g>
</g>
<g>
</g>
<g>
</g>
<g>
</g>
<g>
</g>
<g>
</g>
<g>
</g>
<g>
</g>
</svg>
