<?xml version="1.0" encoding="utf-8"?>
<!-- Svg Vector Icons : http://www.onlinewebfonts.com/icon -->
<!DOCTYPE svg PUBLIC "-//W3C//DTD SVG 1.1//EN" "http://www.w3.org/Graphics/SVG/1.1/DTD/svg11.dtd">
<svg version="1.1" xmlns="http://www.w3.org/2000/svg" xmlns:xlink="http://www.w3.org/1999/xlink" x="0px" y="0px" viewBox="0 0 1000 1000" enable-background="new 0 0 1000 1000" xml:space="preserve">
<metadata> Svg Vector Icons : http://www.onlinewebfonts.com/icon </metadata>
<g><g transform="translate(0.000000,511.000000) scale(0.100000,-0.100000)"><path d="M3350,4978.1c-1676.9-260-2966.1-1555.5-3219.6-3236.7c-40.5-277-40.5-831,0-1108C364.7-922.1,1483.4-2155.8,2996.3-2528.7c343.1-83.1,556.2-108.7,937.6-108.7c777.7,2.1,1480.9,213.1,2120.1,639.2l191.8,125.7l494.3-494.4l496.5-494.3l-479.4-479.4c-500.7-502.9-562.5-586-564.7-754.3c0-136.4,44.7-247.2,153.4-364.4c117.2-130,236.5-185.4,389.9-187.5c189.6,0,242.9,38.3,760.7,554l485.8,483.7l560.4-556.2c594.5-592.4,637.1-624.3,831-624.3c221.6,0,394.2,104.4,481.6,287.7c55.4,117.2,59.7,309,10.7,428.3c-23.4,57.5-208.8,260-590.2,641.4l-556.2,560.4l483.7,485.8c515.7,517.8,554,571.1,554,760.7c-2.1,153.4-57.5,272.7-187.5,389.9c-117.2,108.7-228,153.4-364.4,153.4c-168.3-2.1-251.4-63.9-754.3-564.7L7971.7-2126l-494.3,496.5L6983-1135.2l125.7,191.8C7534.9-304.2,7745.8,399,7748,1176.7c0,381.4-25.6,594.5-108.7,937.5c-372.9,1515-1606.6,2631.5-3162.1,2865.9C4210.8,5020.7,3609.9,5018.6,3350,4978.1z M4306.7,3936.1c411.2-61.8,747.9-185.4,1076.1-392.1c652-411.3,1099.5-1048.3,1259.3-1792c38.4-179,49-291.9,49-564.7s-10.7-385.7-49-564.7C6411.9-453.3,5563.9-1301.4,4487.8-1531.5c-317.5-68.2-811.8-68.2-1129.3,0C2282.5-1301.4,1434.4-453.3,1204.3,622.7c-68.2,317.5-68.2,811.8,0,1129.3C1509,3179.7,2887.6,4149.2,4306.7,3936.1z"/></g></g>
</svg>